<?xml version="1.0" encoding="UTF-8"?>
<svg version="1.1" xmlns="http://www.w3.org/2000/svg" width="1024" height="1024">
<path d="M0 0 C0 0.66 0 1.32 0 2 C1.98 2.99 1.98 2.99 4 4 C4 4.66 4 5.32 4 6 C4.66 6 5.32 6 6 6 C9.87711428 15.6927857 11.30870099 24.50462859 11.5625 34.9375 C11.59931885 36.16637939 11.6361377 37.39525879 11.67407227 38.66137695 C11.91192411 46.86152187 12.06211521 55.06346818 12.2109375 63.265625 C12.22912537 64.26281555 12.24731323 65.2600061 12.26605225 66.28741455 C12.28460266 67.30470642 12.30315308 68.32199829 12.32226562 69.37011719 C12.34119873 70.40583862 12.36013184 71.44156006 12.37963867 72.50866699 C12.41833717 74.6347168 12.45658299 76.76077488 12.49438477 78.88684082 C12.84679215 98.379098 13.54658837 117.84696581 14.46080017 137.32072449 C14.52854393 138.93120415 14.52854393 138.93120415 14.59765625 140.57421875 C14.63222522 141.39211537 14.66679419 142.210012 14.7024107 143.05269337 C14.9785831 150.10974604 15.0489237 157.15220766 15.02514648 164.21411133 C15.02333122 165.2595536 15.02151596 166.30499588 15.01964569 167.38211823 C15.01497143 169.92142247 15.00840048 172.46070583 15 175 C15.73015414 174.99723462 16.46030828 174.99446924 17.21258831 174.99162006 C35.02578377 174.92520194 52.83895432 174.87564268 70.65224743 174.84456348 C79.26682689 174.82913214 87.88132341 174.80811449 96.49584961 174.77368164 C104.00926835 174.74366445 111.52262698 174.72439791 119.03610402 174.71773452 C123.00991057 174.713843 126.98354523 174.70477644 130.95729637 174.68280983 C134.70752485 174.66224936 138.45751278 174.65620509 142.20779228 174.66067696 C144.21992967 174.6594749 146.23204164 174.6434362 148.24411011 174.6267395 C162.27648202 174.67380659 173.08067126 177.00152344 183.6875 186.375 C192.51058869 196.39039798 196.60992162 205.64863827 196.56176758 219.15258789 C196.57371155 220.20792725 196.58565552 221.2632666 196.59796143 222.35058594 C196.63229301 225.80808284 196.63883848 229.26500343 196.64453125 232.72265625 C196.66208624 235.15247238 196.68121239 237.58227761 196.701828 240.0120697 C196.74104342 245.0965172 196.76761138 250.18080904 196.78393555 255.26538086 C196.80481388 261.73502886 196.84732137 268.20428575 196.89822865 274.67376041 C196.94625356 280.89834904 196.98327368 287.12298983 197.01953125 293.34765625 C197.0310469 295.09434947 197.0310469 295.09434947 197.04279518 296.87632942 C197.10738515 307.65231076 197.15020512 318.42572895 196.65893555 329.19311523 C196.63288396 329.89843163 196.60683237 330.60374804 196.57999134 331.33043766 C196.00418327 341.60591407 190.4672926 349.09388948 183.734375 356.453125 C182 358 182 358 180 358 C180 358.66 180 359.32 180 360 C166.85413013 367.94750308 155.97434111 368.29361453 141 368 C141.33 368.99 141.66 369.98 142 371 C141.98877782 373.12660375 141.89565033 375.2533602 141.75 377.375 C141.64945313 379.05722656 141.64945313 379.05722656 141.546875 380.7734375 C140.92749205 384.42779689 140.42756129 386.18666346 138 389 C130.99642777 393.45133545 124.0178318 393.58694627 115.93359375 393.53125 C114.08339378 393.53699036 114.08339378 393.53699036 112.19581604 393.54284668 C109.59969258 393.54555747 107.00354141 393.53825507 104.4074707 393.52148438 C100.44615552 393.50004684 96.48665023 393.52132641 92.52539062 393.546875 C89.99478769 393.54423194 87.46418587 393.53910741 84.93359375 393.53125 C83.7563121 393.53934692 82.57903046 393.54744385 81.36607361 393.55578613 C74.46305974 393.47748174 69.84118853 392.78032606 64 389 C59.32464463 382.27917665 61 376.77858248 61 368 C-50.21 368 -161.42 368 -276 368 C-276 373.94 -276 379.88 -276 386 C-279.51400115 390.30962405 -280.97873588 391.32624529 -286 393 C-287.89967754 393.10844603 -289.80288253 393.15885384 -291.70556641 393.17700195 C-292.87753571 393.18983719 -294.049505 393.20267242 -295.25698853 393.21589661 C-296.52569794 393.22328354 -297.79440735 393.23067047 -299.1015625 393.23828125 C-300.40773529 393.246353 -301.71390808 393.25442474 -303.05966187 393.26274109 C-305.82867299 393.27775965 -308.59765856 393.28759988 -311.36669922 393.29516602 C-314.89380964 393.30619076 -318.42028224 393.34054717 -321.94716835 393.38033772 C-325.33193927 393.41296694 -328.71664657 393.41729746 -332.1015625 393.42578125 C-333.98640854 393.45204338 -333.98640854 393.45204338 -335.90933228 393.47883606 C-342.77306782 393.46197434 -349.29298148 393.24460862 -355 389 C-358.9165899 382.65290426 -358.32908527 375.2033108 -358 368 C-359.31613281 368.03480469 -360.63226563 368.06960938 -361.98828125 368.10546875 C-378.26259494 368.41218054 -390.96492782 366.79514277 -403.3125 355.1875 C-415.24917919 342.43258071 -415.45147132 326.59842971 -415.328125 310.078125 C-415.32505321 308.24762123 -415.32318792 306.41711509 -415.32244873 304.58660889 C-415.31786722 300.75393656 -415.30355009 296.9214768 -415.28125 293.08886719 C-415.25336667 288.28330646 -415.24218288 283.4779127 -415.23740387 278.67227936 C-415.22470513 266.78072868 -415.14704233 254.89065337 -415 243 C-414.98983856 242.17059906 -414.97967712 241.34119812 -414.96920776 240.48666382 C-414.90879682 235.83455993 -414.8286688 231.18347099 -414.71944427 226.53224945 C-414.67373412 224.50435323 -414.63998845 222.47619806 -414.60675049 220.44805908 C-414.2340745 207.127905 -411.45804877 197.53439023 -402.75 187.375 C-390.8041641 177.05814172 -380.55959142 174.53214914 -364.88337708 174.63923645 C-363.48382396 174.63792571 -362.08427158 174.63529435 -360.68472308 174.63146895 C-356.86714956 174.62480477 -353.04983162 174.63670001 -349.23229063 174.65180314 C-345.10497488 174.66481844 -340.97767231 174.66037017 -336.8503418 174.65809631 C-329.70884122 174.65652704 -322.56742319 174.66589999 -315.42594337 174.68280983 C-305.10071142 174.70724229 -294.77551917 174.71500944 -284.45026144 174.7187738 C-267.69622917 174.72533164 -250.94224084 174.74527464 -234.18823242 174.77368164 C-217.91805236 174.80123952 -201.64788425 174.82246464 -185.37768555 174.83520508 C-184.373958 174.83599325 -183.37023044 174.83678142 -182.33608691 174.83759347 C-177.30043195 174.84150873 -172.2647769 174.84529982 -167.2291218 174.84902918 C-125.48605064 174.88010428 -83.74302784 174.93292185 -42 175 C-42.00233391 173.83769741 -42.00466782 172.67539482 -42.00707245 171.47787094 C-42.00896022 169.93509681 -42.01079079 168.3923226 -42.01257324 166.84954834 C-42.01425884 166.08558935 -42.01594444 165.32163036 -42.01768112 164.5345211 C-42.02263887 158.8069994 -41.84459439 153.10964319 -41.53125 147.390625 C-40.89147787 134.23499575 -40.72432514 121.07587994 -40.55444336 107.9074707 C-40.462954 100.83921316 -40.35661185 93.77116804 -40.25 86.703125 C-40.23964218 86.01220764 -40.22928436 85.32129028 -40.21861267 84.60943604 C-40.0470921 73.23763061 -39.82634199 61.86846025 -39.5 50.5 C-39.46455078 49.21319336 -39.42910156 47.92638672 -39.39257812 46.60058594 C-39.19733552 40.23122398 -38.91452718 33.86933149 -38.546875 27.5078125 C-38.43617676 25.59186279 -38.43617676 25.59186279 -38.32324219 23.63720703 C-37.5812815 15.28846809 -36.36554301 7.78685728 -30 2 C-20.6521403 -4.62497396 -10.20123909 -4.53388404 0 0 Z M-336 257 C-336.825 258.010625 -337.65 259.02125 -338.5 260.0625 C-341.53091047 266.04313583 -341.12326828 274.26914465 -339.234375 280.54296875 C-336.52128264 286.28137441 -333.01667795 290.07738929 -326.9765625 292.390625 C-320.00824531 294.53895994 -314.97447622 294.26563416 -308.29296875 291.23046875 C-302.69868199 288.2284239 -297.98304945 284.23558883 -296 278 C-295.01512024 271.42847468 -294.98773474 265.72390691 -298.625 260 C-302.04544734 255.60112682 -305.61418592 251.79527136 -311 250 C-325.2672326 248.59590855 -325.2672326 248.59590855 -336 257 Z M-254 257 C-258.72287545 263.5510853 -258.53066109 270.17516101 -258 278 C-255.79951818 284.48563062 -251.04725386 289.02262946 -245.0078125 292.19921875 C-240.09814548 294.15735443 -235.48934516 294.74308811 -230.3828125 293.21875 C-224.26283776 290.46569145 -219.65425103 286.64951693 -216 281 C-214.91776634 278.08995097 -214.91776634 278.08995097 -215 275 C-214.95230469 274.31035156 -214.90460938 273.62070312 -214.85546875 272.91015625 C-214.59385282 267.24181107 -215.7370337 263.18596444 -218 258 C-218.66 258 -219.32 258 -220 258 C-220.20625 257.4225 -220.4125 256.845 -220.625 256.25 C-222.88276009 252.5554835 -225.87521219 250.55516072 -230.078125 249.45703125 C-239.57424337 248.04589478 -247.05157165 250.36220727 -254 257 Z M53.875 257.3125 C49.67480575 263.33277843 49.34133465 268.83701433 50 276 C51.23506432 281.17183183 54.08499521 284.48653416 58 288 C58.66 288.66 59.32 289.32 60 290 C63.96077725 290.88345328 67.7698838 291.12953567 71.81835938 291.14526367 C72.9397229 291.15164352 74.06108643 291.15802338 75.21643066 291.16459656 C76.41344604 291.16570938 77.61046143 291.1668222 78.84375 291.16796875 C80.70743225 291.17296135 80.70743225 291.17296135 82.60876465 291.17805481 C85.23119741 291.18310904 87.85363659 291.1854636 90.47607422 291.18530273 C93.15875964 291.18522124 95.84127516 291.1922013 98.52392578 291.20581055 C102.40142017 291.2241253 106.27871668 291.2290387 110.15625 291.23046875 C111.35326538 291.23765427 112.55028076 291.24483978 113.78356934 291.25224304 C114.90493286 291.24916641 116.02629639 291.24608978 117.18164062 291.24291992 C118.1628186 291.24434494 119.14399658 291.24576996 120.15490723 291.24723816 C125.34028423 290.79662963 129.69365787 289.18115125 133.60546875 285.671875 C137.48098673 281.02559574 139.43190312 275.33803803 138.9375 269.3125 C137.95052326 263.66978452 135.9437357 258.25923456 132 254 C124.55937949 249.54767357 113.88765333 250.84147321 105.48828125 250.83203125 C103.90867867 250.82703865 103.90867867 250.82703865 102.29716492 250.82194519 C100.08963452 250.81692014 97.88209665 250.81453548 95.67456055 250.81469727 C92.31090861 250.81249896 88.94757902 250.79426382 85.58398438 250.77539062 C83.42708444 250.77245806 81.27018297 250.77047235 79.11328125 250.76953125 C78.11726395 250.76234573 77.12124664 250.75516022 76.095047 250.74775696 C68.15705801 250.77360313 59.55039808 251.1363315 53.875 257.3125 Z " fill="#222222" transform="translate(592,454)"/>
<path d="M0 0 C2.52255844 0.69530586 5.01452245 1.14196865 7.59936523 1.53979492 C15.08801539 2.81834495 22.2099475 5.30190158 29.41186523 7.66479492 C30.69963867 8.06891602 30.69963867 8.06891602 32.01342773 8.48120117 C41.06304016 11.36062331 49.73735659 15.17735981 58.15795898 19.55151367 C60.42973505 20.7109069 60.42973505 20.7109069 62.94311523 21.67260742 C66.97352818 23.29242528 70.64885358 25.5071831 74.41186523 27.66479492 C75.82918945 28.4749707 75.82918945 28.4749707 77.27514648 29.30151367 C91.18637989 37.33069508 104.25737552 46.07778399 116.61889648 56.35229492 C118.58204633 57.97772808 120.55293767 59.58057769 122.54858398 61.16479492 C123.5553418 61.96916992 124.56209961 62.77354492 125.59936523 63.60229492 C126.98188477 64.69864258 126.98188477 64.69864258 128.39233398 65.81713867 C129.0587793 66.42686523 129.72522461 67.0365918 130.41186523 67.66479492 C130.41186523 68.32479492 130.41186523 68.98479492 130.41186523 69.66479492 C131.73186523 70.32479492 133.05186523 70.98479492 134.41186523 71.66479492 C134.41186523 72.32479492 134.41186523 72.98479492 134.41186523 73.66479492 C135.73186523 74.32479492 137.05186523 74.98479492 138.41186523 75.66479492 C138.41186523 76.32479492 138.41186523 76.98479492 138.41186523 77.66479492 C139.02545898 77.92518555 139.63905273 78.18557617 140.27124023 78.45385742 C143.97748775 80.5504573 145.18432548 83.69407959 146.41186523 87.66479492 C147.43118993 95.26895715 146.68451243 101.27076345 142.41186523 107.66479492 C141.87561523 108.55166992 141.33936523 109.43854492 140.78686523 110.35229492 C135.96689158 115.04542717 130.11026551 117.920635 123.34936523 118.28979492 C113.85596718 117.57867528 107.51357477 111.29520076 101.28686523 104.66479492 C95.73213348 98.79734643 95.73213348 98.79734643 89.41967773 93.78979492 C88.42709961 93.08854492 87.43452148 92.38729492 86.41186523 91.66479492 C86.41186523 91.00479492 86.41186523 90.34479492 86.41186523 89.66479492 C85.88077148 89.41729492 85.34967773 89.16979492 84.80249023 88.91479492 C81.79344666 87.34143881 78.9995569 85.52917206 76.16186523 83.66479492 C75.08420898 82.96354492 74.00655273 82.26229492 72.89624023 81.53979492 C72.07639648 80.92104492 71.25655273 80.30229492 70.41186523 79.66479492 C70.41186523 79.00479492 70.41186523 78.34479492 70.41186523 77.66479492 C69.84209961 77.55393555 69.27233398 77.44307617 68.68530273 77.32885742 C66.11909694 76.57927841 64.28953294 75.47750434 62.03686523 74.03979492 C47.78482292 65.28706791 32.30240344 58.54349311 16.43139648 53.35229492 C14.90208029 52.83167664 13.39866301 52.23418398 11.91186523 51.60229492 C8.91777121 50.47950966 5.92192706 49.85464631 2.79077148 49.22729492 C0.41186523 48.66479492 0.41186523 48.66479492 -2.34594727 47.72729492 C-26.89468317 39.68240797 -54.43257096 39.90132938 -79.92993164 41.50024414 C-82.23770781 41.64310244 -84.54376579 41.75779588 -86.85375977 41.85620117 C-93.50655196 42.20056376 -99.71012568 43.1807628 -106.16235352 44.84838867 C-109.01212954 45.52752572 -111.80693998 46.04227718 -114.69360352 46.52026367 C-121.05151823 47.65373663 -127.08325658 49.53378856 -133.21313477 51.53979492 C-134.28047852 51.87881836 -135.34782227 52.2178418 -136.44750977 52.56713867 C-142.68476893 54.58237106 -148.67435358 56.8385413 -154.58813477 59.66479492 C-155.57861816 60.135625 -155.57861816 60.135625 -156.58911133 60.6159668 C-174.39174172 69.20175859 -191.48220316 79.21487245 -206.16699219 92.57861328 C-207.58813477 93.66479492 -207.58813477 93.66479492 -209.58813477 93.66479492 C-209.97485352 94.55811523 -209.97485352 94.55811523 -210.36938477 95.46948242 C-211.6962487 97.85953862 -212.9792282 99.06982604 -215.08813477 100.78979492 C-218.49709722 103.64294828 -221.53595041 106.68362444 -224.58813477 109.91479492 C-229.80732802 115.17395137 -233.55463116 117.14193334 -240.96313477 118.10229492 C-248.0211246 117.25046856 -253.68713272 115.12953714 -258.52563477 109.78979492 C-263.4323258 103.47127297 -265.23369781 98.7589825 -264.99438477 90.69213867 C-263.82855968 82.00449982 -257.82822242 76.31335011 -251.58813477 70.66479492 C-250.93586914 70.06795898 -250.28360352 69.47112305 -249.61157227 68.85620117 C-245.42089526 65.10796616 -241.04939395 61.63721781 -236.56860352 58.24291992 C-234.57269445 56.72376915 -234.57269445 56.72376915 -232.95141602 54.96166992 C-231.58813477 53.66479492 -231.58813477 53.66479492 -229.58813477 53.66479492 C-229.25813477 52.67479492 -228.92813477 51.68479492 -228.58813477 50.66479492 C-226.61679491 49.28944153 -224.61131555 47.96268448 -222.58813477 46.66479492 C-221.19594727 45.45823242 -221.19594727 45.45823242 -219.77563477 44.22729492 C-216.73559455 41.63059391 -213.43143079 39.8453779 -209.91625977 37.96557617 C-207.68794534 36.72056157 -205.62282331 35.36761828 -203.52563477 33.91479492 C-190.34008082 25.04121215 -176.27834509 18.61259202 -161.58813477 12.66479492 C-160.7426709 12.32109863 -159.89720703 11.97740234 -159.02612305 11.62329102 C-156.6131793 10.64782559 -154.19608083 9.6839789 -151.77563477 8.72729492 C-151.06552246 8.4448291 -150.35541016 8.16236328 -149.6237793 7.87133789 C-145.71783672 6.35777354 -141.84844504 5.14253021 -137.76171875 4.18115234 C-135.30442028 3.5973956 -132.86851931 2.94781236 -130.42797852 2.29760742 C-89.50865969 -8.31577522 -41.14356179 -12.28849725 0 0 Z " fill="#222222" transform="translate(637.588134765625,194.335205078125)"/>
<path d="M0 0 C0.9075 0.35191406 1.815 0.70382812 2.75 1.06640625 C7.99756262 3.10623623 13.00155118 5.40821172 18 8 C18 8.66 18 9.32 18 10 C18.7321875 10.10570312 19.464375 10.21140625 20.21875 10.3203125 C23.21791867 11.0532554 24.99291517 12.10061954 27.5 13.875 C28.66982422 14.68710937 28.66982422 14.68710937 29.86328125 15.515625 C30.56839844 16.00546875 31.27351562 16.4953125 32 17 C33.66324401 18.00568242 35.32936253 19.00664799 37 20 C41.03776553 22.59570641 44.95915768 25.3487682 48.875 28.125 C49.84179688 28.80820312 50.80859375 29.49140625 51.8046875 30.1953125 C52.52914063 30.79085937 53.25359375 31.38640625 54 32 C54 32.66 54 33.32 54 34 C54.5775 34.0825 55.155 34.165 55.75 34.25 C58.6539336 35.21797787 60.03740604 36.68694284 62 39 C62 39.66 62 40.32 62 41 C62.5775 41.2475 63.155 41.495 63.75 41.75 C68.61278052 44.45154474 70.74079034 47.77929529 72.45703125 52.9375 C74.36949959 60.20212796 71.97406512 66.38526895 69 73 C66.00795143 77.68754276 62.0843591 80.9718803 56.75 82.75 C48.88593548 83.46491496 41.72054538 83.99226842 35.24609375 78.78515625 C34.31925781 77.88667969 33.39242187 76.98820312 32.4375 76.0625 C31.37381733 75.06098812 30.3086673 74.06103278 29.2421875 73.0625 C27.66811034 71.57571514 26.09405805 70.08890504 24.52050781 68.6015625 C5.59210565 50.96054661 -17.41843709 42.40038619 -42 36 C-42.68457275 35.82130371 -43.36914551 35.64260742 -44.07446289 35.45849609 C-57.01852179 32.37634285 -71.80617096 33.80129776 -85 34 C-86.87945313 34.02513672 -86.87945313 34.02513672 -88.796875 34.05078125 C-112.45536385 35.12338113 -136.29218722 45.55223681 -155.765625 58.5546875 C-157.7942534 59.86691216 -159.81781914 60.9689696 -162 62 C-162 62.66 -162 63.32 -162 64 C-163.57286684 65.41438406 -165.21139996 66.75604401 -166.875 68.0625 C-171.71772986 71.91296949 -176.25605193 75.95900655 -180.7109375 80.25 C-185.54216893 83.94350116 -192.15229022 83.53080573 -198 83 C-200.83228407 82.21553485 -203.30286915 81.19872482 -206 80 C-206 79.34 -206 78.68 -206 78 C-206.5775 77.79375 -207.155 77.5875 -207.75 77.375 C-212.1484124 74.68708131 -214.50775835 69.82108842 -216 65 C-217.47013316 58.32785721 -216.72239288 53.28163027 -214 47 C-210.22436748 41.49836405 -204.47050104 35.15683368 -198 33 C-197.67 32.01 -197.34 31.02 -197 30 C-196.01 30 -195.02 30 -194 30 C-193.67 29.01 -193.34 28.02 -193 27 C-189.21871832 24.02610943 -185.07540971 21.55127275 -181 19 C-180.4131543 18.63036133 -179.82630859 18.26072266 -179.22167969 17.87988281 C-165.89393877 9.53461071 -152.24475706 2.52247411 -137.42578125 -2.7734375 C-135.42981889 -3.4880694 -133.44277036 -4.23102533 -131.484375 -5.04296875 C-90.89077569 -20.68044018 -39.58726512 -16.13387237 0 0 Z " fill="#222222" transform="translate(650,290)"/>
<path d="M0 0 C0.804375 0.30808594 1.60875 0.61617188 2.4375 0.93359375 C13.12565895 5.22794333 22.68960389 12.32864222 32 19 C33.00546875 19.67869141 33.00546875 19.67869141 34.03125 20.37109375 C40.82852542 24.99381708 44.41356909 29.94984646 46 38 C46.20448152 45.1929381 44.20233878 51.47536774 39.4375 56.9375 C37 59 37 59 35 59 C34.67 59.99 34.34 60.98 34 62 C27.99494798 65.00252601 21.46355382 65.81071189 15 64 C10.40263127 61.99681633 6.8157456 59.40750969 2.9375 56.25 C-10.27939434 45.85797478 -25.10504076 39.00135357 -42.25 39.546875 C-59.16391872 41.59064018 -71.14174808 48.10945027 -84 59 C-89.49238098 63.64867186 -94.41519678 65.39694728 -101.5625 64.8125 C-107.24654547 63.97949334 -112.78120767 62.05004063 -117 58 C-117 57.01 -117 56.02 -117 55 C-117.99 54.67 -118.98 54.34 -120 54 C-123.33999627 47.32000746 -124.35744508 40.24288572 -122.4609375 32.91796875 C-118.95758481 24.08259025 -112.18094723 19.45936673 -104.0859375 15.24609375 C-101.9892033 14.11190151 -101.9892033 14.11190151 -100.55078125 12.53125 C-98.52209728 10.5281162 -96.32691237 9.39950065 -93.8125 8.0625 C-92.46091797 7.33740234 -92.46091797 7.33740234 -91.08203125 6.59765625 C-63.16534892 -7.87372914 -29.78662243 -12.95242757 0 0 Z " fill="#222222" transform="translate(617,369)"/>
<path d="M0 0 C2.94793701 2.72384644 2.94793701 2.72384644 3.41650391 5.20922852 C3.43632324 6.09022217 3.45614258 6.97121582 3.4765625 7.87890625 C3.5067749 8.91813232 3.5369873 9.9573584 3.56811523 11.02807617 C3.58688721 12.19443604 3.60565918 13.3607959 3.625 14.5625 C3.65730713 15.81844971 3.68961426 17.07439941 3.72290039 18.3684082 C3.83762607 22.91189323 3.91924886 27.45580357 4 32 C4.03326337 33.8206399 4.0666333 35.64127785 4.10009766 37.46191406 C4.11747482 38.41035187 4.13485199 39.35878967 4.15275574 40.33596802 C4.22736781 44.39556126 4.30271002 48.45514051 4.37863159 52.51470947 C4.41803096 54.63819064 4.45670129 56.76168545 4.49465942 58.88519287 C4.8468727 78.37801369 5.54656203 97.84640471 6.46080017 117.32072449 C6.52854393 118.93120415 6.52854393 118.93120415 6.59765625 120.57421875 C6.6495097 121.80106369 6.6495097 121.80106369 6.7024107 123.05269337 C6.9785831 130.10974604 7.0489237 137.15220766 7.02514648 144.21411133 C7.02333122 145.2595536 7.02151596 146.30499588 7.01964569 147.38211823 C7.01497143 149.92142247 7.00840048 152.46070583 7 155 C7.73015414 154.99723462 8.46030828 154.99446924 9.21258831 154.99162006 C27.02578377 154.92520194 44.83895432 154.87564268 62.65224743 154.84456348 C71.26682689 154.82913214 79.88132341 154.80811449 88.49584961 154.77368164 C96.00926835 154.74366445 103.52262698 154.72439791 111.03610402 154.71773452 C115.00991057 154.713843 118.98354523 154.70477644 122.95729637 154.68280983 C126.70752485 154.66224936 130.45751278 154.65620509 134.20779228 154.66067696 C136.21992967 154.6594749 138.23204164 154.6434362 140.24411011 154.6267395 C154.27648202 154.67380659 165.08067126 157.00152344 175.6875 166.375 C184.51058869 176.39039798 188.60992162 185.64863827 188.56176758 199.15258789 C188.57371155 200.20792725 188.58565552 201.2632666 188.59796143 202.35058594 C188.63229301 205.80808284 188.63883848 209.26500343 188.64453125 212.72265625 C188.66208624 215.15247238 188.68121239 217.58227761 188.701828 220.0120697 C188.74104342 225.0965172 188.76761138 230.18080904 188.78393555 235.26538086 C188.80481388 241.73502886 188.84732137 248.20428575 188.89822865 254.67376041 C188.94625356 260.89834904 188.98327368 267.12298983 189.01953125 273.34765625 C189.02720835 274.5121184 189.03488544 275.67658054 189.04279518 276.87632942 C189.10738515 287.65231076 189.15020512 298.42572895 188.65893555 309.19311523 C188.63288396 309.89843163 188.60683237 310.60374804 188.57999134 311.33043766 C188.00418327 321.60591407 182.4672926 329.09388948 175.734375 336.453125 C174 338 174 338 172 338 C172 338.66 172 339.32 172 340 C158.85413013 347.94750308 147.97434111 348.29361453 133 348 C133.33 348.99 133.66 349.98 134 351 C133.98877782 353.12660375 133.89565033 355.2533602 133.75 357.375 C133.64945313 359.05722656 133.64945313 359.05722656 133.546875 360.7734375 C132.92749205 364.42779689 132.42756129 366.18666346 130 369 C122.99642777 373.45133545 116.0178318 373.58694627 107.93359375 373.53125 C106.08339378 373.53699036 106.08339378 373.53699036 104.19581604 373.54284668 C101.59969258 373.54555747 99.00354141 373.53825507 96.4074707 373.52148438 C92.44615552 373.50004684 88.48665023 373.52132641 84.52539062 373.546875 C81.99478769 373.54423194 79.46418587 373.53910741 76.93359375 373.53125 C75.7563121 373.53934692 74.57903046 373.54744385 73.36607361 373.55578613 C66.46305974 373.47748174 61.84118853 372.78032606 56 369 C51.32464463 362.27917665 53 356.77858248 53 348 C-58.54 348 -170.08 348 -285 348 C-285 353.61 -285 359.22 -285 365 C-285.66 365 -286.32 365 -287 365 C-286.505 356.09 -286.505 356.09 -286 347 C-282.02264782 345.01132391 -280.55674222 344.74917465 -276.28436947 344.74552441 C-275.11131785 344.73969221 -273.93826624 344.73386002 -272.7296676 344.72785109 C-271.43989765 344.73163042 -270.1501277 344.73540974 -268.8212738 344.73930359 C-267.43814944 344.73628377 -266.05502674 344.73239513 -264.67190701 344.72771102 C-260.86718034 344.71740072 -257.06254758 344.71962051 -253.2578131 344.72389162 C-249.15620945 344.7263533 -245.05462875 344.71735172 -240.95303345 344.70985413 C-232.91670525 344.69709035 -224.88041045 344.69531546 -216.84407382 344.69765439 C-210.31482353 344.69943554 -203.78558339 344.69769228 -197.2563343 344.69342995 C-196.32799642 344.69283476 -195.39965853 344.69223957 -194.44318919 344.69162634 C-192.55745752 344.69041463 -190.67172585 344.6892005 -188.78599418 344.68798397 C-171.09362606 344.67710233 -153.40127699 344.6792741 -135.70890779 344.68536881 C-119.50928276 344.6905407 -103.30971781 344.67927647 -87.11010467 344.66027059 C-70.48860545 344.64091871 -53.86713469 344.63263139 -37.24562413 344.63639385 C-27.90891706 344.63830965 -18.57226118 344.63578142 -9.23556328 344.62167931 C-1.28887208 344.60979837 6.65773645 344.60832363 14.60442872 344.62046947 C18.66149078 344.62638088 22.71840137 344.62739555 26.77545357 344.61546707 C30.48564647 344.60468481 34.19556001 344.60761922 37.90573942 344.62172876 C39.89163541 344.62566594 41.87754346 344.61476651 43.86341101 344.60343188 C45.03385488 344.61063842 46.20429875 344.61784497 47.41021061 344.62526989 C48.42455364 344.62521487 49.43889668 344.62515986 50.48397738 344.62510318 C53 345 53 345 54.82397121 346.31101829 C56.77733993 349.11639523 56.42099655 352.02393715 56.5 355.375 C56.65410866 362.22618078 56.65410866 362.22618078 60 368 C63.49958483 369.71135032 66.32352508 370.25182665 70.19824219 370.25878906 C71.20989441 370.26509338 72.22154663 370.27139771 73.26385498 370.27789307 C74.34725159 370.2738446 75.43064819 370.26979614 76.546875 370.265625 C77.67264954 370.26753845 78.79842407 370.2694519 79.95831299 370.27142334 C82.33874739 370.27278309 84.71918926 370.26910131 87.09960938 370.26074219 C90.7228283 370.25007996 94.34554688 370.26062421 97.96875 370.2734375 C100.28645942 370.27211509 102.60416853 370.269551 104.921875 370.265625 C106.53482452 370.27169769 106.53482452 370.27169769 108.18035889 370.27789307 C118.82104938 370.24389406 118.82104938 370.24389406 128.51953125 366.3828125 C130.62086761 363.0007144 130.63557476 359.74516117 130.6875 355.875 C130.91235902 348.17528195 130.91235902 348.17528195 132 346 C133.22074219 345.97421875 134.44148438 345.9484375 135.69921875 345.921875 C150.06247545 345.48587108 162.83404777 343.95005907 174 334 C180.50657097 326.98751854 185.10811716 318.5846958 185.14044189 308.92344666 C185.14615204 307.89890381 185.15186218 306.87436096 185.15774536 305.81877136 C185.15886322 304.70029312 185.15998108 303.58181488 185.16113281 302.42944336 C185.16609772 301.24683929 185.17106262 300.06423523 185.17617798 298.84579468 C185.18827635 295.60365497 185.19574284 292.3615513 185.20018864 289.11939311 C185.20312516 287.08973525 185.20723119 285.06008297 185.21169281 283.03042793 C185.22536521 276.66857205 185.23503144 270.306729 185.2388947 263.94485945 C185.24336602 256.62333246 185.26087168 249.30199304 185.2898953 241.98052305 C185.31159339 236.30812676 185.3216034 230.63578289 185.32293582 224.96334559 C185.32397865 221.58211295 185.32977319 218.20105668 185.34775543 214.81986809 C185.36489769 211.03854244 185.36291504 207.25766759 185.35644531 203.47631836 C185.3656601 202.37200974 185.37487488 201.26770111 185.3843689 200.12992859 C185.31474867 187.07531843 181.91883472 177.63558504 173.15234375 167.9609375 C164.02990968 159.15694568 153.10953559 158.39765122 140.98168945 158.36230469 C139.50223141 158.34366787 138.02279403 158.32332495 136.54338074 158.30142212 C132.5607315 158.24722271 128.57822209 158.21664439 124.59530282 158.19056606 C120.42048527 158.15912726 116.24594968 158.10560404 112.07133484 158.05450439 C104.18113048 157.96123814 96.29087216 157.88760156 88.40040129 157.82115865 C79.41102501 157.74449577 70.42193302 157.64573406 61.43279707 157.54519033 C42.95540662 157.33901149 24.47784224 157.16034277 6 157 C3.7585023 150.62656901 3.58421334 144.52118407 3.40576172 137.80444336 C3.36645538 136.59030258 3.32714905 135.3761618 3.28665161 134.12522888 C3.18106105 130.80621955 3.08339858 127.48716133 2.98949575 124.16781306 C2.88876066 120.6678877 2.77836732 117.16826562 2.66921997 113.66859436 C2.48686579 107.77687162 2.31124729 101.88497941 2.14013672 95.99291992 C1.94397904 89.23958382 1.73952721 82.48654292 1.52993953 75.73361105 C1.30497649 68.48467894 1.08527163 61.23559483 0.86755228 53.98644185 C0.80552182 51.93000325 0.74266592 49.87359125 0.67965317 47.81718254 C0.19559394 31.87274293 -0.1199816 15.95205246 0 0 Z " fill="#0A0A0B" transform="translate(600,474)"/>
<path d="M0 0 C2.52255844 0.69530586 5.01452245 1.14196865 7.59936523 1.53979492 C15.08801539 2.81834495 22.2099475 5.30190158 29.41186523 7.66479492 C30.69963867 8.06891602 30.69963867 8.06891602 32.01342773 8.48120117 C41.06304016 11.36062331 49.73735659 15.17735981 58.15795898 19.55151367 C60.42973505 20.7109069 60.42973505 20.7109069 62.94311523 21.67260742 C66.97352818 23.29242528 70.64885358 25.5071831 74.41186523 27.66479492 C75.82918945 28.4749707 75.82918945 28.4749707 77.27514648 29.30151367 C91.18637989 37.33069508 104.25737552 46.07778399 116.61889648 56.35229492 C118.58204633 57.97772808 120.55293767 59.58057769 122.54858398 61.16479492 C123.5553418 61.96916992 124.56209961 62.77354492 125.59936523 63.60229492 C126.98188477 64.69864258 126.98188477 64.69864258 128.39233398 65.81713867 C129.0587793 66.42686523 129.72522461 67.0365918 130.41186523 67.66479492 C130.41186523 68.32479492 130.41186523 68.98479492 130.41186523 69.66479492 C131.73186523 70.32479492 133.05186523 70.98479492 134.41186523 71.66479492 C134.41186523 72.32479492 134.41186523 72.98479492 134.41186523 73.66479492 C135.73186523 74.32479492 137.05186523 74.98479492 138.41186523 75.66479492 C138.41186523 76.32479492 138.41186523 76.98479492 138.41186523 77.66479492 C139.02545898 77.92518555 139.63905273 78.18557617 140.27124023 78.45385742 C143.97748775 80.5504573 145.18432548 83.69407959 146.41186523 87.66479492 C147.43118993 95.26895715 146.68451243 101.27076345 142.41186523 107.66479492 C141.87561523 108.55166992 141.33936523 109.43854492 140.78686523 110.35229492 C135.96689158 115.04542717 130.11026551 117.920635 123.34936523 118.28979492 C113.85596718 117.57867528 107.51357477 111.29520076 101.28686523 104.66479492 C95.73213348 98.79734643 95.73213348 98.79734643 89.41967773 93.78979492 C88.42709961 93.08854492 87.43452148 92.38729492 86.41186523 91.66479492 C86.41186523 91.00479492 86.41186523 90.34479492 86.41186523 89.66479492 C85.88077148 89.41729492 85.34967773 89.16979492 84.80249023 88.91479492 C81.79344666 87.34143881 78.9995569 85.52917206 76.16186523 83.66479492 C75.08420898 82.96354492 74.00655273 82.26229492 72.89624023 81.53979492 C72.07639648 80.92104492 71.25655273 80.30229492 70.41186523 79.66479492 C70.41186523 79.00479492 70.41186523 78.34479492 70.41186523 77.66479492 C69.84209961 77.55393555 69.27233398 77.44307617 68.68530273 77.32885742 C66.11909694 76.57927841 64.28953294 75.47750434 62.03686523 74.03979492 C47.78482292 65.28706791 32.30240344 58.54349311 16.43139648 53.35229492 C14.90208029 52.83167664 13.39866301 52.23418398 11.91186523 51.60229492 C8.91777121 50.47950966 5.92192706 49.85464631 2.79077148 49.22729492 C0.41186523 48.66479492 0.41186523 48.66479492 -2.34594727 47.72729492 C-26.89468317 39.68240797 -54.43257096 39.90132938 -79.92993164 41.50024414 C-82.23770781 41.64310244 -84.54376579 41.75779588 -86.85375977 41.85620117 C-93.50655196 42.20056376 -99.71012568 43.1807628 -106.16235352 44.84838867 C-109.01212954 45.52752572 -111.80693998 46.04227718 -114.69360352 46.52026367 C-121.05151823 47.65373663 -127.08325658 49.53378856 -133.21313477 51.53979492 C-134.28047852 51.87881836 -135.34782227 52.2178418 -136.44750977 52.56713867 C-142.68476893 54.58237106 -148.67435358 56.8385413 -154.58813477 59.66479492 C-155.57861816 60.135625 -155.57861816 60.135625 -156.58911133 60.6159668 C-174.39174172 69.20175859 -191.48220316 79.21487245 -206.16699219 92.57861328 C-207.58813477 93.66479492 -207.58813477 93.66479492 -209.58813477 93.66479492 C-209.97485352 94.55811523 -209.97485352 94.55811523 -210.36938477 95.46948242 C-211.6962487 97.85953862 -212.9792282 99.06982604 -215.08813477 100.78979492 C-218.49709722 103.64294828 -221.53595041 106.68362444 -224.58813477 109.91479492 C-229.80732802 115.17395137 -233.55463116 117.14193334 -240.96313477 118.10229492 C-248.0211246 117.25046856 -253.68713272 115.12953714 -258.52563477 109.78979492 C-263.4323258 103.47127297 -265.23369781 98.7589825 -264.99438477 90.69213867 C-263.82855968 82.00449982 -257.82822242 76.31335011 -251.58813477 70.66479492 C-250.93586914 70.06795898 -250.28360352 69.47112305 -249.61157227 68.85620117 C-245.42089526 65.10796616 -241.04939395 61.63721781 -236.56860352 58.24291992 C-234.57269445 56.72376915 -234.57269445 56.72376915 -232.95141602 54.96166992 C-231.58813477 53.66479492 -231.58813477 53.66479492 -229.58813477 53.66479492 C-229.25813477 52.67479492 -228.92813477 51.68479492 -228.58813477 50.66479492 C-226.61679491 49.28944153 -224.61131555 47.96268448 -222.58813477 46.66479492 C-221.19594727 45.45823242 -221.19594727 45.45823242 -219.77563477 44.22729492 C-216.73559455 41.63059391 -213.43143079 39.8453779 -209.91625977 37.96557617 C-207.68794534 36.72056157 -205.62282331 35.36761828 -203.52563477 33.91479492 C-190.34008082 25.04121215 -176.27834509 18.61259202 -161.58813477 12.66479492 C-160.7426709 12.32109863 -159.89720703 11.97740234 -159.02612305 11.62329102 C-156.6131793 10.64782559 -154.19608083 9.6839789 -151.77563477 8.72729492 C-151.06552246 8.4448291 -150.35541016 8.16236328 -149.6237793 7.87133789 C-145.71783672 6.35777354 -141.84844504 5.14253021 -137.76171875 4.18115234 C-135.30442028 3.5973956 -132.86851931 2.94781236 -130.42797852 2.29760742 C-89.50865969 -8.31577522 -41.14356179 -12.28849725 0 0 Z M-113.58813477 0.66479492 C-114.60939453 0.87378418 -115.6306543 1.08277344 -116.68286133 1.2980957 C-169.07702925 12.42539672 -215.02964984 38.92941827 -253.33813477 75.97729492 C-253.92288574 76.52756348 -254.50763672 77.07783203 -255.11010742 77.64477539 C-259.97318074 82.45891575 -262.073891 87.19364949 -263.08813477 94.03979492 C-262.21248244 100.38827427 -259.47250833 106.3878046 -254.58813477 110.66479492 C-250.11527904 113.64669874 -246.53930322 114.95436442 -241.15063477 114.97729492 C-239.79131836 115.00243164 -239.79131836 115.00243164 -238.40454102 115.02807617 C-230.75692376 114.04162901 -226.46469637 108.83285303 -221.40063477 103.53979492 C-215.0824903 97.09563797 -208.84610539 91.05476238 -201.58813477 85.66479492 C-200.98066406 85.21330078 -200.37319336 84.76180664 -199.74731445 84.29663086 C-178.34309054 68.50594795 -155.92617307 56.76482644 -130.58813477 48.66479492 C-129.85014648 48.42631836 -129.1121582 48.1878418 -128.35180664 47.94213867 C-68.84340455 29.05914617 -2.3438648 38.42192856 52.65795898 66.28979492 C73.43411484 77.14247725 91.96735191 91.56153603 108.15136719 108.47729492 C111.84370991 112.29609994 114.11749248 114.43654337 119.43530273 114.96557617 C129.05645958 115.09985599 129.05645958 115.09985599 136.98999023 110.15307617 C141.34513058 105.44910177 144.07994497 100.70739731 144.78686523 94.22729492 C143.75021309 84.37909958 138.8620693 78.78104015 131.52905273 72.53588867 C129.50243911 70.74484083 127.65186568 68.87184474 125.78686523 66.91479492 C86.06866453 26.81098062 27.28882896 4.75796414 -27.58813477 -2.33520508 C-28.78237061 -2.50721436 -29.97660645 -2.67922363 -31.20703125 -2.85644531 C-36.15742678 -3.46924152 -41.08525772 -3.53324674 -46.06860352 -3.57348633 C-47.56579422 -3.58817711 -47.56579422 -3.58817711 -49.0932312 -3.60316467 C-70.89504542 -3.77290874 -92.15360256 -3.77099076 -113.58813477 0.66479492 Z " fill="#030303" transform="translate(637.588134765625,194.335205078125)"/>
<path d="M0 0 C0 0.66 0 1.32 0 2 C1.98 2.99 1.98 2.99 4 4 C4 4.66 4 5.32 4 6 C4.66 6 5.32 6 6 6 C6.99 8.97 7.98 11.94 9 15 C8.34 15.66 7.68 16.32 7 17 C6.8040625 16.34773438 6.608125 15.69546875 6.40625 15.0234375 C4.10560309 8.29999523 1.35101347 4.36157158 -5 1 C-11.2645097 -1.01006906 -18.12219319 -0.70291212 -24.1484375 1.9140625 C-28.50884927 4.47143481 -31.18783103 7.72969111 -32.89437675 12.50010967 C-34.99614102 20.63400976 -35.53571468 28.4660866 -35.69189453 36.8371582 C-35.72895706 38.28571043 -35.76722067 39.73423235 -35.80657959 41.182724 C-35.90920798 45.07883402 -35.99553374 48.97515025 -36.07896662 52.87171197 C-36.16972445 56.9659352 -36.27655232 61.05973855 -36.38180542 65.15361023 C-36.57863632 72.89719761 -36.76251758 80.64103065 -36.94104564 88.38505954 C-37.26141822 102.26128848 -37.6049969 116.13695665 -37.95179069 130.01254719 C-38.07284295 134.87602818 -38.18855756 139.73959855 -38.2996943 144.60331595 C-38.36945035 147.62905434 -38.4424626 150.65470864 -38.51616669 153.68035316 C-38.54947801 155.07870093 -38.58135739 156.47708369 -38.61166763 157.87549973 C-38.65332895 159.79052498 -38.70058206 161.70542611 -38.74807739 163.62031555 C-38.77275652 164.68968007 -38.79743565 165.75904459 -38.82286263 166.86081409 C-39.01594671 170.28260374 -39.47146479 173.61514948 -40 177 C-40.70640916 177.00097681 -41.41281832 177.00195362 -42.14063382 177.00296003 C-84.02728093 177.06125804 -125.91387573 177.1350745 -167.80045886 177.22898628 C-172.8321416 177.24025417 -177.86382461 177.25139266 -182.89550781 177.26245117 C-183.89720665 177.26465486 -184.89890549 177.26685854 -185.93095884 177.269129 C-202.14089234 177.30448157 -218.3508258 177.32935722 -234.56078354 177.35034702 C-251.19917487 177.37212532 -267.83751628 177.40519503 -284.47586513 177.44870156 C-294.73894351 177.47518329 -305.00195968 177.49290428 -315.26507053 177.49934604 C-322.30709817 177.50461056 -329.34904761 177.52086326 -336.39103332 177.54566566 C-340.45119228 177.55964419 -344.51121136 177.56886514 -348.57139587 177.56500816 C-352.29519434 177.56157814 -356.01869492 177.57207558 -359.74243245 177.59323552 C-361.71389376 177.60093218 -363.68539569 177.59409379 -365.65685773 177.58658296 C-378.48909055 177.68818822 -390.35590006 179.91343518 -400.03515625 188.88671875 C-407.47737111 196.92936708 -411.1980298 206.12857979 -411.31884766 217.13647461 C-411.3338991 218.15463351 -411.3338991 218.15463351 -411.34925461 219.19336128 C-411.37997686 221.42968076 -411.39711084 223.66588098 -411.4140625 225.90234375 C-411.43301704 227.48865202 -411.45277875 229.07495082 -411.47329712 230.66123962 C-411.52529741 234.88331781 -411.56515784 239.10542243 -411.60169983 243.32765961 C-411.63277087 246.80791101 -411.66946524 250.28809435 -411.70604706 253.76829147 C-411.79504906 262.25852364 -411.87119045 270.74881175 -411.94069672 279.23922348 C-411.98869207 284.97994733 -412.05418572 290.72031434 -412.12789917 296.46076965 C-412.17256039 300.13216684 -412.20432399 303.80355417 -412.23016357 307.47512817 C-412.24314543 309.04571333 -412.26090114 310.61626807 -412.28399658 312.18673706 C-412.48868832 326.84076801 -411.1407847 342.21297938 -401.0625 353.6875 C-393.54436319 360.6745543 -383.16423743 364.91465428 -372.98828125 365.28125 C-372.06595703 365.31863281 -371.14363281 365.35601563 -370.19335938 365.39453125 C-368.26108335 365.4652722 -366.3287914 365.53557955 -364.39648438 365.60546875 C-363.47802734 365.64285156 -362.55957031 365.68023438 -361.61328125 365.71875 C-360.77579346 365.74904297 -359.93830566 365.77933594 -359.07543945 365.81054688 C-357 366 -357 366 -355 367 C-354.98582031 368.25296875 -354.97164062 369.5059375 -354.95703125 370.796875 C-354.91012562 372.44795328 -354.86187825 374.09899382 -354.8125 375.75 C-354.80669922 376.575 -354.80089844 377.4 -354.79492188 378.25 C-354.64803468 382.29755838 -354.5513754 384.34364925 -351.88671875 387.515625 C-344.84508792 391.13649065 -336.33953568 390.12994439 -328.62890625 390.09765625 C-326.71270729 390.09553383 -326.71270729 390.09553383 -324.75779724 390.09336853 C-321.38275254 390.08873516 -318.00777703 390.07977023 -314.63275146 390.06866455 C-311.18030389 390.05838426 -307.72784913 390.05385681 -304.27539062 390.04882812 C-297.51690815 390.03782466 -290.75845807 390.02110567 -284 390 C-284.66 390.99 -285.32 391.98 -286 393 C-288.45777893 393.38768005 -288.45777893 393.38768005 -291.59204102 393.40405273 C-293.35010826 393.42307899 -293.35010826 393.42307899 -295.14369202 393.44248962 C-296.41756271 393.43955399 -297.69143341 393.43661835 -299.00390625 393.43359375 C-300.31149399 393.4388356 -301.61908173 393.44407745 -302.96629333 393.44947815 C-305.74137983 393.45842728 -308.51617894 393.45597084 -311.29125977 393.44604492 C-314.82633929 393.43462612 -318.36040932 393.45464582 -321.89535618 393.48396206 C-325.28575652 393.50688549 -328.67593057 393.49984783 -332.06640625 393.49609375 C-333.32610733 393.50732773 -334.58580841 393.51856171 -335.88368225 393.53013611 C-342.74401001 393.47624124 -349.2949894 393.23784357 -355 389 C-358.91664755 382.65297682 -358.32908249 375.20325009 -358 368 C-359.31613281 368.03480469 -360.63226563 368.06960938 -361.98828125 368.10546875 C-378.26259494 368.41218054 -390.96492782 366.79514277 -403.3125 355.1875 C-415.24917919 342.43258071 -415.45147132 326.59842971 -415.328125 310.078125 C-415.32505321 308.24762123 -415.32318792 306.41711509 -415.32244873 304.58660889 C-415.31786722 300.75393656 -415.30355009 296.9214768 -415.28125 293.08886719 C-415.25336667 288.28330646 -415.24218288 283.4779127 -415.23740387 278.67227936 C-415.22470513 266.78072868 -415.14704233 254.89065337 -415 243 C-414.98983856 242.17059906 -414.97967712 241.34119812 -414.96920776 240.48666382 C-414.90879682 235.83455993 -414.8286688 231.18347099 -414.71944427 226.53224945 C-414.67373412 224.50435323 -414.63998845 222.47619806 -414.60675049 220.44805908 C-414.2340745 207.127905 -411.45804877 197.53439023 -402.75 187.375 C-390.8041641 177.05814172 -380.55959142 174.53214914 -364.88337708 174.63923645 C-363.48382396 174.63792571 -362.08427158 174.63529435 -360.68472308 174.63146895 C-356.86714956 174.62480477 -353.04983162 174.63670001 -349.23229063 174.65180314 C-345.10497488 174.66481844 -340.97767231 174.66037017 -336.8503418 174.65809631 C-329.70884122 174.65652704 -322.56742319 174.66589999 -315.42594337 174.68280983 C-305.10071142 174.70724229 -294.77551917 174.71500944 -284.45026144 174.7187738 C-267.69622917 174.72533164 -250.94224084 174.74527464 -234.18823242 174.77368164 C-217.91805236 174.80123952 -201.64788425 174.82246464 -185.37768555 174.83520508 C-184.373958 174.83599325 -183.37023044 174.83678142 -182.33608691 174.83759347 C-177.30043195 174.84150873 -172.2647769 174.84529982 -167.2291218 174.84902918 C-125.48605064 174.88010428 -83.74302784 174.93292185 -42 175 C-42.00233391 173.83769741 -42.00466782 172.67539482 -42.00707245 171.47787094 C-42.00896022 169.93509681 -42.01079079 168.3923226 -42.01257324 166.84954834 C-42.01425884 166.08558935 -42.01594444 165.32163036 -42.01768112 164.5345211 C-42.02263887 158.8069994 -41.84459439 153.10964319 -41.53125 147.390625 C-40.89147787 134.23499575 -40.72432514 121.07587994 -40.55444336 107.9074707 C-40.462954 100.83921316 -40.35661185 93.77116804 -40.25 86.703125 C-40.23964218 86.01220764 -40.22928436 85.32129028 -40.21861267 84.60943604 C-40.0470921 73.23763061 -39.82634199 61.86846025 -39.5 50.5 C-39.46455078 49.21319336 -39.42910156 47.92638672 -39.39257812 46.60058594 C-39.19733552 40.23122398 -38.91452718 33.86933149 -38.546875 27.5078125 C-38.43617676 25.59186279 -38.43617676 25.59186279 -38.32324219 23.63720703 C-37.5812815 15.28846809 -36.36554301 7.78685728 -30 2 C-20.6521403 -4.62497396 -10.20123909 -4.53388404 0 0 Z " fill="#020202" transform="translate(592,454)"/>
<path d="M0 0 C0.9075 0.35191406 1.815 0.70382812 2.75 1.06640625 C7.99756262 3.10623623 13.00155118 5.40821172 18 8 C18 8.66 18 9.32 18 10 C18.7321875 10.10570312 19.464375 10.21140625 20.21875 10.3203125 C23.21791867 11.0532554 24.99291517 12.10061954 27.5 13.875 C28.66982422 14.68710937 28.66982422 14.68710937 29.86328125 15.515625 C30.56839844 16.00546875 31.27351562 16.4953125 32 17 C33.66324401 18.00568242 35.32936253 19.00664799 37 20 C41.03776553 22.59570641 44.95915768 25.3487682 48.875 28.125 C49.84179688 28.80820312 50.80859375 29.49140625 51.8046875 30.1953125 C52.52914063 30.79085937 53.25359375 31.38640625 54 32 C54 32.66 54 33.32 54 34 C54.5775 34.0825 55.155 34.165 55.75 34.25 C58.6539336 35.21797787 60.03740604 36.68694284 62 39 C62 39.66 62 40.32 62 41 C62.5775 41.2475 63.155 41.495 63.75 41.75 C68.61278052 44.45154474 70.74079034 47.77929529 72.45703125 52.9375 C74.36949959 60.20212796 71.97406512 66.38526895 69 73 C66.00795143 77.68754276 62.0843591 80.9718803 56.75 82.75 C48.88593548 83.46491496 41.72054538 83.99226842 35.24609375 78.78515625 C34.31925781 77.88667969 33.39242187 76.98820312 32.4375 76.0625 C31.37381733 75.06098812 30.3086673 74.06103278 29.2421875 73.0625 C27.66811034 71.57571514 26.09405805 70.08890504 24.52050781 68.6015625 C5.59210565 50.96054661 -17.41843709 42.40038619 -42 36 C-42.68457275 35.82130371 -43.36914551 35.64260742 -44.07446289 35.45849609 C-57.01852179 32.37634285 -71.80617096 33.80129776 -85 34 C-86.87945313 34.02513672 -86.87945313 34.02513672 -88.796875 34.05078125 C-112.45536385 35.12338113 -136.29218722 45.55223681 -155.765625 58.5546875 C-157.7942534 59.86691216 -159.81781914 60.9689696 -162 62 C-162 62.66 -162 63.32 -162 64 C-163.57286684 65.41438406 -165.21139996 66.75604401 -166.875 68.0625 C-171.71772986 71.91296949 -176.25605193 75.95900655 -180.7109375 80.25 C-185.54216893 83.94350116 -192.15229022 83.53080573 -198 83 C-200.83228407 82.21553485 -203.30286915 81.19872482 -206 80 C-206 79.34 -206 78.68 -206 78 C-206.5775 77.79375 -207.155 77.5875 -207.75 77.375 C-212.1484124 74.68708131 -214.50775835 69.82108842 -216 65 C-217.47013316 58.32785721 -216.72239288 53.28163027 -214 47 C-210.22436748 41.49836405 -204.47050104 35.15683368 -198 33 C-197.67 32.01 -197.34 31.02 -197 30 C-196.01 30 -195.02 30 -194 30 C-193.67 29.01 -193.34 28.02 -193 27 C-189.21871832 24.02610943 -185.07540971 21.55127275 -181 19 C-180.4131543 18.63036133 -179.82630859 18.26072266 -179.22167969 17.87988281 C-165.89393877 9.53461071 -152.24475706 2.52247411 -137.42578125 -2.7734375 C-135.42981889 -3.4880694 -133.44277036 -4.23102533 -131.484375 -5.04296875 C-90.89077569 -20.68044018 -39.58726512 -16.13387237 0 0 Z M-208 43 C-213.41728765 49.48511839 -214.66559199 54.71707741 -214 63 C-212.71832982 69.08250255 -209.61614774 73.87493181 -205 78 C-199.30984482 81.45872178 -193.4989183 81.97671604 -187 81 C-181.33902348 78.83196644 -177.50414155 74.58330729 -173.37890625 70.3046875 C-155.2801795 52.77061725 -132.19512737 41.35006216 -108 35 C-107.32549805 34.82065918 -106.65099609 34.64131836 -105.95605469 34.45654297 C-84.77910834 29.15440847 -58.11922537 29.87162214 -37 35 C-35.94619141 35.24943359 -35.94619141 35.24943359 -34.87109375 35.50390625 C-10.85061038 41.38914265 13.02955196 53.41352609 30.3125 71.3125 C35.95899361 77.10224504 40.74568561 81.31155931 49.125 81.625 C56.36635456 81.21147087 60.41861127 78.93756245 65.3125 73.5625 C69.87250864 68.17794185 70.53177327 62.86864673 70.35546875 55.984375 C69.19552755 46.2459676 60.19278141 39.82991899 53 34 C-24.22293426 -26.27466651 -125.88797002 -24.9367454 -208 43 Z " fill="#020202" transform="translate(650,290)"/>
<path d="M0 0 C0.804375 0.30808594 1.60875 0.61617188 2.4375 0.93359375 C13.12565895 5.22794333 22.68960389 12.32864222 32 19 C33.00546875 19.67869141 33.00546875 19.67869141 34.03125 20.37109375 C40.80502527 24.97783498 44.45354605 29.95584035 46 38 C45.99399724 41.85977379 45.74000498 45.51999004 44 49 C43.34 49 42.68 49 42 49 C42.04640625 48.154375 42.0928125 47.30875 42.140625 46.4375 C42.36857173 39.27345977 42.33561692 33.86142957 38 28 C15.86797691 6.18304958 -12.8303246 -3.2817106 -43.23510742 -3.31689453 C-52.82974972 -3.21631005 -60.95614992 -2.23209737 -70 1 C-70.62084473 1.21430664 -71.24168945 1.42861328 -71.88134766 1.64941406 C-84.43819142 6.0383999 -95.68857273 12.52230175 -106.5625 20.125 C-107.42016968 20.71812988 -107.42016968 20.71812988 -108.29516602 21.32324219 C-113.48612657 25.05845509 -118.37099254 29.63206176 -120 36 C-121.08240893 43.34282812 -119.06401036 48.88259494 -115 55 C-111.44396461 59.18127238 -107.39008054 61.10165324 -102 62 C-94.12657182 62.3350395 -89.78331158 60.11006348 -84 55 C-70.12395442 43.12984536 -54.68050467 36.47355473 -36.2109375 36.7265625 C-19.40937327 38.15735264 -5.43886947 45.60706851 7.58398438 55.91210938 C12.46597405 59.76108394 16.34514603 62.51214373 22.8125 61.9375 C29.70220448 61.05578187 34.55275085 57.94447238 39 52.6875 C39.66 51.800625 40.32 50.91375 41 50 C41.66 50.99 42.32 51.98 43 53 C40.4948029 56.48938167 39.19537087 58.13199223 35 59 C34.67 59.99 34.34 60.98 34 62 C27.99494798 65.00252601 21.46355382 65.81071189 15 64 C10.40263127 61.99681633 6.8157456 59.40750969 2.9375 56.25 C-10.27939434 45.85797478 -25.10504076 39.00135357 -42.25 39.546875 C-59.16391872 41.59064018 -71.14174808 48.10945027 -84 59 C-89.49238098 63.64867186 -94.41519678 65.39694728 -101.5625 64.8125 C-107.24654547 63.97949334 -112.78120767 62.05004063 -117 58 C-117 57.01 -117 56.02 -117 55 C-117.99 54.67 -118.98 54.34 -120 54 C-123.33999627 47.32000746 -124.35744508 40.24288572 -122.4609375 32.91796875 C-118.95758481 24.08259025 -112.18094723 19.45936673 -104.0859375 15.24609375 C-101.9892033 14.11190151 -101.9892033 14.11190151 -100.55078125 12.53125 C-98.52209728 10.5281162 -96.32691237 9.39950065 -93.8125 8.0625 C-92.46091797 7.33740234 -92.46091797 7.33740234 -91.08203125 6.59765625 C-63.16534892 -7.87372914 -29.78662243 -12.95242757 0 0 Z " fill="#030203" transform="translate(617,369)"/>
<path d="M0 0 C0 0.66 0 1.32 0 2 C1.98 2.99 1.98 2.99 4 4 C4 4.66 4 5.32 4 6 C4.66 6 5.32 6 6 6 C6.99 8.97 7.98 11.94 9 15 C8.34 15.66 7.68 16.32 7 17 C6.8040625 16.34773438 6.608125 15.69546875 6.40625 15.0234375 C4.10560309 8.29999523 1.35101347 4.36157158 -5 1 C-11.2645097 -1.01006906 -18.12219319 -0.70291212 -24.1484375 1.9140625 C-28.50722333 4.47048119 -31.18647466 7.7280346 -32.89381886 12.49620438 C-35.00562633 20.66504257 -35.54238384 28.54117259 -35.70776367 36.94824219 C-35.74646407 38.4081527 -35.78634953 39.86803219 -35.82731628 41.32788086 C-35.93414625 45.25243288 -36.0245991 49.17720444 -36.11189818 53.10223293 C-36.20630723 57.21840902 -36.31607608 61.33417629 -36.42414856 65.45001221 C-36.62604639 73.2267172 -36.81432226 81.00368859 -36.9975875 88.78085256 C-37.20707297 97.64217893 -37.43192258 106.50309516 -37.6580013 115.36401129 C-38.12231343 133.57560611 -38.56753133 151.78762255 -39 170 C-39.33 170 -39.66 170 -40 170 C-40.33 171.98 -40.66 173.96 -41 176 C-152.21 176 -263.42 176 -378 176 C-378 175.67 -378 175.34 -378 175 C-267.12 175 -156.24 175 -42 175 C-42 169.39 -42 163.78 -42 158 C-41.87257147 154.45736317 -41.72509509 150.92859675 -41.53125 147.390625 C-40.89147787 134.23499575 -40.72432514 121.07587994 -40.55444336 107.9074707 C-40.462954 100.83921316 -40.35661185 93.77116804 -40.25 86.703125 C-40.23964218 86.01220764 -40.22928436 85.32129028 -40.21861267 84.60943604 C-40.0470921 73.23763061 -39.82634199 61.86846025 -39.5 50.5 C-39.46455078 49.21319336 -39.42910156 47.92638672 -39.39257812 46.60058594 C-39.19733552 40.23122398 -38.91452718 33.86933149 -38.546875 27.5078125 C-38.43617676 25.59186279 -38.43617676 25.59186279 -38.32324219 23.63720703 C-37.5812815 15.28846809 -36.36554301 7.78685728 -30 2 C-20.6521403 -4.62497396 -10.20123909 -4.53388404 0 0 Z " fill="#111111" transform="translate(592,454)"/>
<path d="M0 0 C1.36328388 -0.00456842 2.72656546 -0.00987594 4.08984375 -0.0158844 C6.93759559 -0.02478596 9.78506654 -0.02242584 12.6328125 -0.01245117 C16.26769998 -0.0009548 19.90161688 -0.02119671 23.53637695 -0.05036831 C26.34869458 -0.0687824 29.1607817 -0.0684278 31.97314453 -0.06273079 C33.95999289 -0.06250456 35.94681978 -0.07934829 37.93359375 -0.09654236 C46.7193295 -0.02888435 51.41513944 0.84873319 57.75 7.18359375 C62.1238706 13.50140684 64.15441358 19.72001212 63 27.43359375 C61.15489366 34.06719035 57.82957574 38.73708522 52 42.43359375 C48.14826941 44.25799794 45.08394573 44.68999912 40.83618164 44.70825195 C39.61463882 44.71778397 38.39309601 44.72731598 37.13453674 44.73713684 C35.82299118 44.73622543 34.51144562 44.73531403 33.16015625 44.734375 C31.79161958 44.73826568 30.4230841 44.74260112 29.05455017 44.74736023 C26.19070516 44.7548075 23.32698346 44.75454202 20.46313477 44.74926758 C16.80359851 44.74347412 13.14456858 44.7604076 9.485116 44.78361225 C6.65999937 44.79838489 3.83500369 44.79921654 1.00985527 44.79610252 C-0.99198257 44.79686159 -2.99380173 44.81070492 -4.99559021 44.82478333 C-6.22028519 44.81855453 -7.44498016 44.81232574 -8.70678711 44.8059082 C-10.31631508 44.80685234 -10.31631508 44.80685234 -11.95835876 44.80781555 C-17.48542099 44.12780531 -22.05397678 41.27577426 -26 37.43359375 C-30.24250631 31.29761986 -31.77328556 24.41518071 -30.62890625 17.04296875 C-29.02916472 11.20043445 -25.92788332 6.95611775 -21 3.43359375 C-14.26073026 -0.3973815 -7.60613847 -0.01720138 0 0 Z M-24.125 8.74609375 C-28.32519425 14.76637218 -28.65866535 20.27060808 -28 27.43359375 C-26.76493568 32.60542558 -23.91500479 35.92012791 -20 39.43359375 C-19.34 40.09359375 -18.68 40.75359375 -18 41.43359375 C-14.03922275 42.31704703 -10.2301162 42.56312942 -6.18164062 42.57885742 C-5.0602771 42.58523727 -3.93891357 42.59161713 -2.78356934 42.59819031 C-1.58655396 42.59930313 -0.38953857 42.60041595 0.84375 42.6015625 C2.70743225 42.6065551 2.70743225 42.6065551 4.60876465 42.61164856 C7.23119741 42.61670279 9.85363659 42.61905735 12.47607422 42.61889648 C15.15875964 42.61881499 17.84127516 42.62579505 20.52392578 42.6394043 C24.40142017 42.65771905 28.27871668 42.66263245 32.15625 42.6640625 C33.35326538 42.67124802 34.55028076 42.67843353 35.78356934 42.68583679 C36.90493286 42.68276016 38.02629639 42.67968353 39.18164062 42.67651367 C40.1628186 42.67793869 41.14399658 42.67936371 42.15490723 42.68083191 C47.34028423 42.23022338 51.69365787 40.614745 55.60546875 37.10546875 C59.48098673 32.45918949 61.43190312 26.77163178 60.9375 20.74609375 C59.95052326 15.10337827 57.9437357 9.69282831 54 5.43359375 C46.55937949 0.98126732 35.88765333 2.27506696 27.48828125 2.265625 C25.90867867 2.2606324 25.90867867 2.2606324 24.29716492 2.25553894 C22.08963452 2.25051389 19.88209665 2.24812923 17.67456055 2.24829102 C14.31090861 2.24609271 10.94757902 2.22785757 7.58398438 2.20898438 C5.42708444 2.20605181 3.27018297 2.2040661 1.11328125 2.203125 C0.11726395 2.19593948 -0.87875336 2.18875397 -1.904953 2.18135071 C-9.84294199 2.20719688 -18.44960192 2.56992525 -24.125 8.74609375 Z " fill="#090909" transform="translate(670,702.56640625)"/>
<path d="M0 0 C4.25296627 3.15232424 6.84122398 6.85730096 8.2421875 11.90234375 C9.03792966 18.86102776 9.38523217 26.00301693 5.6328125 32.16015625 C0.02683409 39.18337639 -6.23070142 43.18586639 -15.1328125 44.33984375 C-22.73524975 43.42230822 -29.46347346 40.44879417 -34.7578125 34.90234375 C-39.24764594 28.57904135 -40.61174464 21.06699104 -39.3515625 13.4453125 C-37.35515612 6.46977356 -33.35751965 1.2541534 -27.1328125 -2.47265625 C-17.44094993 -7.1391086 -8.93075149 -5.57675815 0 0 Z M-32.7578125 4.90234375 C-37.48068795 11.45342905 -37.28847359 18.07750476 -36.7578125 25.90234375 C-34.55733068 32.38797437 -29.80506636 36.92497321 -23.765625 40.1015625 C-18.85595798 42.05969818 -14.24715766 42.64543186 -9.140625 41.12109375 C-3.02065026 38.3680352 1.58793647 34.55186068 5.2421875 28.90234375 C6.32442116 25.99229472 6.32442116 25.99229472 6.2421875 22.90234375 C6.28988281 22.21269531 6.33757812 21.52304687 6.38671875 20.8125 C6.64833468 15.14415482 5.5051538 11.08830819 3.2421875 5.90234375 C2.5821875 5.90234375 1.9221875 5.90234375 1.2421875 5.90234375 C1.0359375 5.32484375 0.8296875 4.74734375 0.6171875 4.15234375 C-1.64057259 0.45782725 -4.63302469 -1.54249553 -8.8359375 -2.640625 C-18.33205587 -4.05176147 -25.80938415 -1.73544898 -32.7578125 4.90234375 Z " fill="#030303" transform="translate(370.7578125,706.09765625)"/>
<path d="M0 0 C5.63527006 3.77682993 10.21149121 8.33173266 12 15 C13.15772411 22.92127024 12.4930507 29.17677025 7.91015625 35.83984375 C2.56530821 41.88422201 -4.28288119 45.55498879 -12.3125 46.3125 C-19.03006369 45.74321494 -25.20535737 43.92782715 -30 39 C-35.90126179 30.86900009 -36.85366659 24.03960003 -36 14 C-34.20710519 7.65827492 -29.90792519 2.18942955 -24.15234375 -1.03515625 C-16.16274408 -4.45019388 -7.72790086 -3.86395043 0 0 Z M-30 7 C-30.825 8.010625 -31.65 9.02125 -32.5 10.0625 C-35.53091047 16.04313583 -35.12326828 24.26914465 -33.234375 30.54296875 C-30.52128264 36.28137441 -27.01667795 40.07738929 -20.9765625 42.390625 C-14.00824531 44.53895994 -8.97447622 44.26563416 -2.29296875 41.23046875 C3.30131801 38.2284239 8.01695055 34.23558883 10 28 C10.98487976 21.42847468 11.01226526 15.72390691 7.375 10 C3.95455266 5.60112682 0.38581408 1.79527136 -5 0 C-19.2672326 -1.40409145 -19.2672326 -1.40409145 -30 7 Z " fill="#020202" transform="translate(286,704)"/>
<path d="M0 0 C3.49911695 -0.20537903 6.99666666 -0.32829941 10.5 -0.4375 C11.48226562 -0.49615234 12.46453125 -0.55480469 13.4765625 -0.61523438 C18.93878072 -0.74268613 22.29873733 -0.36216332 26.5625 3.22265625 C31.6715676 8.41245552 34.09334918 14.28090879 34.5 21.5625 C34.13037959 28.31105338 31.59010364 33.91485218 26.5625 38.4375 C22.01346563 42.14216604 17.74551338 43.25156006 11.92456055 43.22705078 C10.12325935 43.22682419 10.12325935 43.22682419 8.28556824 43.22659302 C6.35563774 43.21110916 6.35563774 43.21110916 4.38671875 43.1953125 C3.04865226 43.19157912 1.71058303 43.18873368 0.37251282 43.18673706 C-3.13741699 43.17912616 -6.64717945 43.15949982 -10.15704346 43.1373291 C-13.74334449 43.11681564 -17.32967274 43.10772362 -20.91601562 43.09765625 C-27.94407885 43.07625129 -34.97203138 43.04214631 -42 43 C-42 42.67 -42 42.34 -42 42 C-13.29 41.505 -13.29 41.505 16 41 C16 40.67 16 40.34 16 40 C16.886875 39.7525 17.77375 39.505 18.6875 39.25 C24.27767656 37.14049941 26.92347711 34.72767898 29.375 29.3125 C31.73186406 22.82396737 31.16700206 17.49737613 28.5625 11.1875 C28.046875 10.135625 27.53125 9.08375 27 8 C26.73574219 7.30003906 26.47148438 6.60007812 26.19921875 5.87890625 C25.14260647 3.81739479 25.14260647 3.81739479 22.890625 3.171875 C15.22811049 1.94768629 7.75134371 1.79631506 0 2 C0 1.34 0 0.68 0 0 Z " fill="#010202" transform="translate(699,704)"/>
<path d="M0 0 C0.33 0 0.66 0 1 0 C1.02346555 12.35532982 1.0410854 24.71065409 1.05181217 37.06600189 C1.05696784 42.8068675 1.06392725 48.54771756 1.07543945 54.28857422 C1.12544633 79.87757815 1.09507785 105.43064077 0 131 C-0.33 131 -0.66 131 -1 131 C-2.9436741 123.53050862 -3.03769767 116.63915036 -2.58984375 109 C-2.11350682 99.62626739 -1.85126942 90.26368053 -1.71875 80.87890625 C-1.70012909 79.56260727 -1.68150818 78.24630829 -1.662323 76.89012146 C-1.6248926 74.17066088 -1.58907092 71.45118359 -1.5541687 68.73168945 C-1.46341009 61.67646238 -1.35975841 54.62142103 -1.25390625 47.56640625 C-1.24366991 46.88026875 -1.23343357 46.19413124 -1.22288704 45.48720169 C-0.99422223 30.31839371 -0.59888179 15.15883436 0 0 Z " fill="#0E0E0E" transform="translate(553,493)"/>
<path d="M0 0 C0.33 0 0.66 0 1 0 C1.33 3.96 1.66 7.92 2 12 C60.21662202 12.81444042 60.21662202 12.81444042 118.4375 13.125 C119.63664032 13.12749756 120.83578064 13.12999512 122.07125854 13.13256836 C125.40040138 13.13834687 128.72945043 13.13705539 132.05859375 13.1328125 C133.02132202 13.13479645 133.98405029 13.1367804 134.97595215 13.13882446 C135.85199097 13.13571259 136.72802979 13.13260071 137.63061523 13.12939453 C138.38398666 13.12859894 139.13735809 13.12780334 139.91355896 13.12698364 C142.05256869 12.9968006 143.92754142 12.52041337 146 12 C148.359375 12.33984375 148.359375 12.33984375 150.75 12.9375 C151.94882812 13.22947266 151.94882812 13.22947266 153.171875 13.52734375 C153.77515625 13.68332031 154.3784375 13.83929687 155 14 C155 14.66 155 15.32 155 16 C134.93808905 15.76248023 114.87625351 15.51935863 94.81449223 15.26950932 C85.50013773 15.1536399 76.18576733 15.03962588 66.87133789 14.92993164 C58.75589861 14.83435302 50.64050983 14.73534224 42.52516359 14.63215441 C38.2254353 14.57760407 33.92570117 14.52481018 29.62590218 14.4761219 C25.58351665 14.4302943 21.54121452 14.37989776 17.49892998 14.32591057 C16.01098081 14.30685936 14.52300871 14.28951502 13.03501892 14.2739563 C11.0121897 14.25255651 8.98943332 14.22456741 6.96669006 14.19618225 C5.8319629 14.18235536 4.69723574 14.16852846 3.5281229 14.15428257 C1 14 1 14 0 13 C-0.07258946 10.81360547 -0.08373783 8.62499611 -0.0625 6.4375 C-0.05347656 5.23996094 -0.04445313 4.04242187 -0.03515625 2.80859375 C-0.02355469 1.88175781 -0.01195312 0.95492187 0 0 Z " fill="#000000" transform="translate(605,617)"/>
<path d="M0 0 C2.42019505 2.15200368 2.95647113 2.7030269 3.44824219 6.05810547 C3.48079102 7.31510254 3.51333984 8.57209961 3.546875 9.8671875 C3.56760574 10.56246552 3.58833649 11.25774353 3.60969543 11.97409058 C3.67245469 14.27431316 3.71213561 16.57424226 3.75 18.875 C3.78621352 20.47298548 3.82259283 22.07096722 3.85913086 23.66894531 C4.205537 41.12236041 3.66461886 58.56016001 3 76 C2.67 76 2.34 76 2 76 C1.70908994 68.71263272 1.42511319 61.4250167 1.14550781 54.13720703 C1.05002369 51.66839773 0.95306769 49.19964483 0.85449219 46.73095703 C0.23332027 31.1446126 -0.14375127 15.59900885 0 0 Z " fill="#030303" transform="translate(600,474)"/>
<path d="M0 0 C0.33 0 0.66 0 1 0 C1.33 18.48 1.66 36.96 2 56 C1.34 56 0.68 56 0 56 C-0.80360848 52.49974515 -1.10183426 49.33768955 -1.02172852 45.75073242 C-1.00163223 44.73005173 -0.98153595 43.70937103 -0.96083069 42.65776062 C-0.93379562 41.5680043 -0.90676056 40.47824799 -0.87890625 39.35546875 C-0.85529526 38.2305452 -0.83168427 37.10562164 -0.80735779 35.9466095 C-0.73089682 32.36010568 -0.64679659 28.77382737 -0.5625 25.1875 C-0.50926175 22.75326618 -0.45652148 20.31902141 -0.40429688 17.88476562 C-0.27530542 11.9230381 -0.1400445 5.96147757 0 0 Z " fill="#111011" transform="translate(603,513)"/>
<path d="M0 0 C1.17948463 0.00212242 1.17948463 0.00212242 2.38279724 0.00428772 C4.8581039 0.00981953 7.33331512 0.0223585 9.80859375 0.03515625 C11.50195181 0.04018009 13.1953113 0.04474144 14.88867188 0.04882812 C19.00784845 0.05976647 23.126955 0.07698263 27.24609375 0.09765625 C27.24609375 0.42765625 27.24609375 0.75765625 27.24609375 1.09765625 C24.93609375 1.42765625 22.62609375 1.75765625 20.24609375 2.09765625 C20.24609375 2.42765625 20.24609375 2.75765625 20.24609375 3.09765625 C-5.51766962 3.30404578 -5.51766962 3.30404578 -17.75390625 2.09765625 C-17.75390625 1.76765625 -17.75390625 1.43765625 -17.75390625 1.09765625 C-11.79139853 0.35266501 -6.00462949 -0.04182378 0 0 Z " fill="#0E0E0E" transform="translate(566.75390625,187.90234375)"/>
<path d="M0 0 C0.66 0 1.32 0 2 0 C3.84989242 20.77825592 3.84989242 20.77825592 2 29 C1.67 29 1.34 29 1 29 C0.15156826 22.43300475 -0.12561146 16.05449407 -0.0625 9.4375 C-0.05798828 8.52419922 -0.05347656 7.61089844 -0.04882812 6.66992188 C-0.0371874 4.44654262 -0.02083851 2.22330879 0 0 Z " fill="#000000" transform="translate(603,569)"/>
<path d="M0 0 C0 0.33 0 0.66 0 1 C-12.78296925 1.86732046 -25.22391633 2.00295343 -38 1 C-38 0.67 -38 0.34 -38 0 C-25.38974369 -1.52521459 -12.60263234 -1.60033426 0 0 Z " fill="#0A0A0A" transform="translate(596,277)"/>
<path d="M0 0 C0.33 0 0.66 0 1 0 C1.98872336 7.25063794 -1.26075518 12.91943904 -5 19 C-7.203125 21.36328125 -7.203125 21.36328125 -9 23 C-8.411072 19.31592817 -7.37665702 16.47318392 -5.625 13.1875 C-3.39252103 8.87137399 -1.61197481 4.5814021 0 0 Z " fill="#070707" transform="translate(787,784)"/>
<path d="M0 0 C0.33 0 0.66 0 1 0 C1 3.3 1 6.6 1 10 C1.66 10 2.32 10 3 10 C3.48198463 11.24891614 3.96045677 12.49918808 4.4375 13.75 C4.70433594 14.44609375 4.97117187 15.1421875 5.24609375 15.859375 C5.96146693 17.89059003 6.51365652 19.9035291 7 22 C0.95512724 16.43235403 -0.36827485 11.95973688 -1 4 C-0.5625 1.5 -0.5625 1.5 0 0 Z " fill="#0C0C0C" transform="translate(434,343)"/>
<path d="M0 0 C0.33 0 0.66 0 1 0 C2.0735426 16.25650224 2.0735426 16.25650224 -0.55859375 20.53125 C-2.5 22.125 -2.5 22.125 -6 24 C-6.66 23.67 -7.32 23.34 -8 23 C-3.375 18.125 -3.375 18.125 0 17 C0 11.39 0 5.78 0 0 Z " fill="#121212" transform="translate(315,822)"/>
<path d="M0 0 C0.66 0 1.32 0 2 0 C3.04976964 3.14930893 3.10131595 5.38814456 3.0625 8.6875 C3.05347656 9.68136719 3.04445313 10.67523437 3.03515625 11.69921875 C3.02355469 12.45847656 3.01195312 13.21773437 3 14 C2.01 14.495 2.01 14.495 1 15 C0.67 10.05 0.34 5.1 0 0 Z " fill="#0B0B0B" transform="translate(376,715)"/>
<path d="M0 0 C0.33 0 0.66 0 1 0 C2.7610915 11.65766007 2.7610915 11.65766007 0.0625 16.25 C-0.618125 17.1575 -1.29875 18.065 -2 19 C-2.625 17.1875 -2.625 17.1875 -3 15 C-2.34 14.01 -1.68 13.02 -1 12 C-0.54084493 9.03157342 -0.54084493 9.03157342 -0.375 5.8125 C-0.30023438 4.72582031 -0.22546875 3.63914062 -0.1484375 2.51953125 C-0.09945313 1.68808594 -0.05046875 0.85664062 0 0 Z " fill="#0C0C0C" transform="translate(296,720)"/>
<path d="M0 0 C2 2 2 2 2.1953125 4.1640625 C2.16050781 5.38222656 2.16050781 5.38222656 2.125 6.625 C2.10695313 7.44226563 2.08890625 8.25953125 2.0703125 9.1015625 C2.04710937 9.72804688 2.02390625 10.35453125 2 11 C0.515625 9.7265625 0.515625 9.7265625 -1 8 C-1.25 4.375 -1.25 4.375 -1 1 C-0.67 0.67 -0.34 0.34 0 0 Z " fill="#090908" transform="translate(654,820)"/>
<path d="M0 0 C2.56995074 1.28497537 2.90434463 2.49912373 4.125 5.0625 C4.47820313 5.79597656 4.83140625 6.52945313 5.1953125 7.28515625 C5.46085938 7.85105469 5.72640625 8.41695312 6 9 C5.01 9 4.02 9 3 9 C0 2.25 0 2.25 0 0 Z " fill="#090909" transform="translate(642,732)"/>
</svg>
