<?xml version="1.0" standalone="no"?>
<!DOCTYPE svg PUBLIC "-//W3C//DTD SVG 20010904//EN"
 "http://www.w3.org/TR/2001/REC-SVG-20010904/DTD/svg10.dtd">
<svg version="1.0" xmlns="http://www.w3.org/2000/svg"
 width="300.000000pt" height="450.000000pt" viewBox="0 0 300.000000 450.000000"
 preserveAspectRatio="xMidYMid meet">
<metadata>
Created by potrace 1.10, written by Peter Selinger 2001-2011
</metadata>
<g transform="translate(0.000000,450.000000) scale(0.100000,-0.100000)"
fill="#000000" stroke="none">
<path d="M1579 3417 c-57 -21 -104 -54 -119 -82 -12 -23 -18 -25 -52 -20 -21
4 -53 2 -72 -5 -46 -15 -102 -78 -117 -132 -7 -24 -23 -56 -36 -71 -33 -41
-47 -103 -35 -155 9 -40 8 -44 -12 -51 -42 -16 -122 -41 -148 -46 -47 -9 -36
-42 37 -113 77 -74 150 -110 242 -119 52 -5 63 -9 59 -22 -3 -9 -10 -47 -16
-86 -13 -83 -20 -93 -55 -77 -36 17 -107 15 -154 -4 -37 -15 -46 -15 -104 0
-127 32 -230 14 -317 -55 -29 -23 -64 -62 -79 -86 -14 -25 -46 -64 -70 -87
-53 -50 -80 -106 -81 -166 0 -47 28 -106 55 -116 12 -5 15 -24 15 -85 0 -85
-10 -117 -50 -165 -23 -26 -29 -48 -39 -137 -7 -58 -21 -142 -30 -186 -10 -44
-14 -86 -10 -93 3 -7 10 -34 13 -60 10 -71 21 -77 121 -74 47 2 88 6 91 9 3 3
-4 32 -16 63 -25 68 -22 97 22 232 29 91 30 93 102 151 40 33 80 71 90 85 l17
26 39 -20 c46 -23 55 -48 47 -122 -6 -46 -2 -58 57 -176 35 -70 71 -149 81
-177 10 -27 22 -55 27 -61 5 -6 40 -11 85 -10 97 1 102 13 39 93 -41 53 -126
223 -126 253 0 7 13 36 30 64 l29 52 54 -10 55 -10 16 -97 c9 -54 16 -139 16
-189 0 -68 3 -92 14 -96 7 -3 16 -23 20 -44 4 -25 14 -43 27 -50 24 -14 181
-2 191 13 3 6 -7 38 -24 71 -40 79 -46 153 -23 285 l18 101 37 0 c20 0 63 5
95 12 50 10 60 9 64 -3 2 -8 32 -43 66 -79 74 -77 94 -113 102 -183 3 -29 14
-64 24 -79 10 -15 19 -34 19 -43 0 -9 11 -27 25 -40 22 -23 32 -25 114 -25 51
0 93 4 96 10 4 6 -11 43 -33 83 -46 86 -76 160 -96 243 -9 33 -36 104 -62 158
l-46 99 34 65 33 66 3 188 c2 103 7 188 11 188 4 0 54 -16 112 -36 86 -29 114
-35 161 -31 65 6 119 34 136 71 6 13 24 32 41 42 47 28 69 97 51 165 -9 34
-29 61 -91 123 -65 64 -78 82 -73 100 4 11 10 48 14 81 4 33 10 68 14 77 5 11
0 24 -14 38 -19 19 -31 21 -93 18 -69 -3 -71 -2 -77 22 -4 16 0 33 11 49 46
59 32 149 -30 203 -21 18 -44 50 -51 71 -20 62 -64 105 -126 123 -43 12 -62
13 -86 5 -27 -10 -33 -8 -45 9 -43 61 -183 97 -264 67z m196 -97 c19 -18 37
-42 41 -52 6 -22 32 -23 58 -3 40 30 122 9 148 -38 7 -12 15 -42 18 -66 4 -40
8 -46 37 -53 41 -11 63 -42 63 -90 0 -27 -6 -41 -22 -52 -31 -22 -54 -20 -92
9 -40 30 -48 31 -70 6 -25 -28 -83 -35 -135 -17 l-43 16 -28 -29 c-28 -31 -69
-47 -95 -37 -18 7 -45 -3 -45 -16 0 -11 62 -38 88 -38 11 0 36 12 58 26 34 23
42 25 75 15 52 -16 79 -14 123 8 37 19 38 19 69 0 18 -10 46 -19 63 -19 27 0
33 -4 37 -27 7 -36 3 -41 -37 -48 -22 -5 -44 -1 -63 8 -49 26 -272 26 -298 1
-23 -23 -152 -10 -160 16 -7 22 -63 66 -108 85 -51 21 -138 28 -186 15 -54
-14 -64 -4 -57 60 3 35 11 51 35 71 26 21 31 33 31 68 0 36 6 49 35 78 37 37
54 39 137 18 24 -6 29 -3 47 33 19 37 54 70 91 85 8 4 45 5 82 4 62 -2 71 -6
103 -37z m-327 -466 c54 -27 66 -44 33 -44 -11 0 -22 -4 -25 -9 -9 -14 4 -41
20 -41 22 0 16 -17 -14 -39 -69 -48 -189 -52 -285 -8 -50 23 -132 85 -124 94
2 2 49 19 103 38 130 44 216 47 292 9z m95 -79 c-10 -7 -21 -11 -25 -9 -12 8
-9 34 3 34 6 0 8 8 5 18 -4 11 0 9 14 -7 19 -22 19 -24 3 -36z m746 -17 c-1
-101 -7 -108 -56 -55 -60 65 -70 87 -47 104 10 7 37 13 61 13 l43 0 -1 -62z
m-330 26 c42 -9 54 -34 46 -94 -10 -72 -32 -90 -110 -90 -57 0 -66 3 -85 27
-17 22 -20 38 -18 87 l3 61 50 6 c79 9 81 9 114 3z m194 -74 c20 -27 86 -90
147 -140 126 -105 137 -127 58 -115 -93 13 -103 12 -103 -10 0 -15 11 -24 45
-34 25 -8 48 -19 52 -25 14 -20 8 -56 -12 -76 -26 -26 -65 -25 -134 1 -53 19
-76 19 -76 -1 0 -21 87 -53 154 -58 69 -5 69 -5 47 -23 -53 -43 -138 -31 -309
42 -109 47 -183 67 -269 76 -53 5 -63 3 -63 -10 0 -22 8 -26 127 -55 l106 -27
0 -175 c0 -200 -12 -261 -66 -332 -45 -59 -130 -101 -235 -118 -46 -7 -85 -10
-87 -8 -3 3 2 24 10 48 24 69 0 83 -39 23 -54 -82 -106 -337 -87 -423 5 -24 9
-45 8 -46 -1 -1 -22 -4 -47 -5 l-45 -4 -1 78 c-2 130 -35 348 -56 369 -22 22
-38 16 -38 -14 0 -19 -4 -20 -57 -15 -69 8 -210 50 -275 83 -46 23 -46 23 -37
61 18 81 -20 101 -46 24 -21 -66 -70 -127 -141 -181 -33 -24 -65 -51 -71 -59
-18 -23 -70 -187 -78 -248 l-7 -53 -38 0 c-22 0 -41 4 -45 9 -3 6 1 41 10 78
8 37 22 114 30 171 13 86 20 110 44 140 41 52 51 99 51 242 0 222 32 332 120
414 82 76 187 93 313 50 45 -15 49 -15 90 5 53 26 99 26 152 2 48 -21 61 -18
80 18 11 22 55 209 55 234 0 2 14 7 30 11 39 7 112 57 134 90 15 24 22 26 90
26 l74 0 12 -70 c6 -38 21 -81 31 -95 43 -54 193 -58 251 -6 29 26 47 78 48
138 0 31 9 41 40 42 9 1 32 -21 53 -49z m294 -337 c-4 -20 -16 -46 -27 -57
l-21 -21 4 48 c2 44 16 66 41 67 5 0 6 -17 3 -37z m-1918 -302 c-6 -28 -8 -58
-5 -66 3 -8 1 -15 -4 -15 -18 0 -22 66 -6 105 22 51 29 40 15 -24z m1351 -421
c0 -5 15 -41 34 -82 18 -40 41 -102 50 -137 9 -35 25 -84 36 -109 30 -66 27
-74 -22 -70 -41 3 -43 5 -52 43 -28 130 -36 146 -107 221 -68 72 -81 94 -56
94 7 0 33 13 57 29 43 27 60 30 60 11z m-920 -8 c0 -5 18 -8 39 -8 22 1 37 -2
34 -6 -2 -5 8 -8 24 -8 15 0 35 -5 43 -10 12 -7 12 -10 1 -10 -7 0 -11 -6 -8
-14 3 -8 0 -17 -8 -19 -7 -3 -16 -19 -20 -36 -4 -17 -10 -33 -15 -36 -7 -4 -3
-29 15 -95 2 -8 14 -35 26 -60 13 -25 22 -48 21 -52 -1 -5 3 -8 8 -8 6 0 10
-9 10 -19 0 -11 8 -26 18 -33 9 -7 23 -24 31 -38 7 -14 10 -22 6 -18 -4 4 -18
3 -31 -2 -31 -12 -69 24 -78 74 -4 23 -11 34 -18 30 -6 -4 -8 -3 -5 3 3 5 0
21 -8 36 -8 15 -11 27 -8 27 3 0 -2 9 -12 20 -10 11 -14 20 -10 20 5 0 2 6 -6
13 -16 12 -59 118 -59 143 0 9 5 12 11 8 8 -5 9 -2 2 11 -6 10 -8 26 -6 35 3
10 0 27 -6 39 -8 14 -8 21 -1 21 5 0 10 -4 10 -8z m1116 -437 c6 -16 9 -33 7
-37 -6 -12 -91 -10 -98 2 -4 6 -11 8 -16 5 -10 -7 -25 22 -16 31 2 3 17 7 33
10 16 3 33 9 37 13 17 17 42 5 53 -24z m-1517 -6 c9 -26 7 -28 -20 -34 -17 -4
-33 -4 -36 -1 -4 3 -12 1 -19 -5 -9 -7 -17 -4 -28 13 -10 14 -12 24 -6 26 8 3
8 8 0 17 -8 10 1 13 44 13 51 0 56 -2 65 -29z m905 -21 c-3 -4 0 -8 7 -8 7 0
9 -3 6 -7 -4 -3 -2 -12 4 -20 6 -7 8 -13 3 -14 -41 -4 -111 -5 -121 -2 -15 6
-10 35 8 43 8 4 24 12 37 19 13 6 27 9 32 6 6 -4 10 0 10 7 0 10 3 9 9 -2 6
-8 7 -18 5 -22z"/>
<path d="M1916 2734 c-36 -35 -6 -116 34 -94 23 12 34 43 24 73 -12 38 -34 46
-58 21z"/>
</g>
</svg>
